<?xml version="1.0" encoding="UTF-8"?>
<svg id="uuid-acae2de0-06c0-4f14-af68-a6c8f2e2095d" data-name="Layer 1" xmlns="http://www.w3.org/2000/svg" viewBox="0 0 94.23 94.23">
  <defs>
    <style>
      .uuid-e18fd90c-88e5-4b04-837d-21ed7bba2136 {
        fill: #571b09;
        stroke: #571b09;
        stroke-miterlimit: 10;
        stroke-width: 3px;
      }
    </style>
  </defs>
  <g id="uuid-49d15dcd-f254-4429-93ed-c1c80b1dc929" data-name="ðŸ”-System-Icons">
    <g id="uuid-e2a65c2a-f66c-49e1-bb6a-34de9f09448d" data-name="ic fluent arrow repeat all 24 filled">
      <path id="uuid-446d5520-a066-4d57-88d5-6f17e1aeffc5" data-name="ðŸŽ¨-Color" class="uuid-e18fd90c-88e5-4b04-837d-21ed7bba2136" d="m83.61,27.42c1.46,0,2.75.68,3.59,1.74v-.02c3.49,5.12,5.54,11.3,5.54,17.96,0,17.25-13.71,31.31-30.83,31.89l-1.1.02h-25.53s5.95,5.94,5.95,5.94l.35.4c1.42,1.79,1.3,4.4-.35,6.05-1.64,1.64-4.23,1.77-6.02.38l-.43-.38-13.71-13.7-.35-.4c-1.3-1.64-1.31-3.97-.03-5.62l.38-.43,13.71-13.7.4-.35c1.64-1.3,3.97-1.31,5.62-.03l.43.38.35.4c1.3,1.64,1.31,3.97.03,5.62l-.38.43-5.9,5.89h25.48c12.59,0,22.8-10.2,22.8-22.79,0-4.64-1.39-8.97-3.78-12.57-.49-.73-.78-1.61-.78-2.56,0-2.52,2.04-4.56,4.56-4.56ZM59.09,2.48l.4.35,13.71,13.7c1.65,1.65,1.77,4.26.35,6.05l-.35.4-13.71,13.7c-1.78,1.78-4.67,1.78-6.45,0-1.65-1.65-1.77-4.26-.35-6.05l.35-.4,5.92-5.92h-25.53c-12.59,0-22.8,10.2-22.8,22.79,0,4.19,1.13,8.11,3.1,11.48l.62.99c.53.74.84,1.65.84,2.64,0,2.52-2.04,4.56-4.56,4.56-1.52,0-2.87-.75-3.7-1.89-3.42-5.07-5.42-11.19-5.42-17.78,0-17.25,13.71-31.31,30.83-31.89l1.1-.02h25.54s-5.93-5.92-5.93-5.92c-1.65-1.65-1.77-4.26-.35-6.05l.35-.4c1.65-1.65,4.26-1.77,6.05-.35Z"/>
    </g>
  </g>
</svg>