<svg xmlns="http://www.w3.org/2000/svg" viewBox="0 0 20 20">
<path d="M8.1,11c-0.5-0.5-1.3-0.5-1.8,0l-3,3l-1.2-1.2c-0.2-0.2-0.6-0.4-0.9-0.4c-0.2,0-0.3,0-0.5,0.1C0.3,12.8,0,13.2,0,13.8V19
	c0,0.6,0.4,1,0.9,1h5.3c0.5,0,1-0.3,1.2-0.8c0.2-0.5,0.1-1-0.3-1.4L6,16.7l3-3c0.5-0.5,0.5-1.3,0-1.8L8.1,11z M19,0h-5.3
	c-0.5,0-1,0.3-1.2,0.8c-0.2,0.5-0.1,1,0.3,1.4L14,3.3l-3,3c-0.5,0.5-0.5,1.3,0,1.8L11.8,9c0.5,0.5,1.3,0.5,1.8,0l3-3l1.2,1.2
	c0.4,0.4,0.9,0.5,1.4,0.3C19.7,7.2,20,6.8,20,6.2V0.9C20,0.4,19.6,0,19,0z" fill="#571b09"/>
</svg>
