<?xml version="1.0" encoding="UTF-8"?>
<svg id="uuid-249014ad-dc15-4f13-9bea-0855540f322e" data-name="Layer 1" xmlns="http://www.w3.org/2000/svg" viewBox="0 0 34.39 38.4">
  <defs>
    <style>
      .uuid-64c482d6-6284-413a-a045-06cdf0f9be20 {
        stroke-miterlimit: 3.2;
      }

      .uuid-64c482d6-6284-413a-a045-06cdf0f9be20, .uuid-50baaf68-ae1a-4c00-92bb-3053556edd60 {
        fill: none;
        stroke: #fce3bf;
        stroke-width: 2.4px;
      }

      .uuid-50baaf68-ae1a-4c00-92bb-3053556edd60 {
        stroke-linecap: round;
        stroke-linejoin: round;
      }
    </style>
  </defs>
  <path class="uuid-64c482d6-6284-413a-a045-06cdf0f9be20" d="m1.2,18.72c0-3.05,0-4.57.63-5.91.63-1.34,1.8-2.33,4.16-4.31l2.28-1.92C12.53,2.99,14.66,1.2,17.19,1.2s4.66,1.79,8.92,5.37l2.28,1.92c2.36,1.98,3.53,2.97,4.16,4.31.63,1.34.63,2.86.63,5.91v9.51c0,4.23,0,6.34-1.34,7.66-1.34,1.31-3.49,1.31-7.8,1.31h-13.71c-4.31,0-6.46,0-7.8-1.31-1.34-1.31-1.34-3.43-1.34-7.66v-9.51Z"/>
  <path class="uuid-50baaf68-ae1a-4c00-92bb-3053556edd60" d="m22.9,37.2v-12.46c0-.55-.45-1-1-1h-9.43c-.55,0-1,.45-1,1v12.46"/>
</svg>