<?xml version="1.0" encoding="UTF-8"?>
<svg id="uuid-161b1d93-077b-44fc-a2c6-94d6d46fa49f" data-name="Layer 1" xmlns="http://www.w3.org/2000/svg" viewBox="0 0 122.88 116.54">
  <defs>
    <style>
      .uuid-e437e6c4-5460-4428-96a4-09f7138dff56 {
        fill: #571b09;
      }

      .uuid-a6db9902-a930-4ffe-a92b-b88cba1297c3, .uuid-98d5dbe8-bb6e-4b6c-bc5a-88f078f6f4a9 {
        fill: #bb925d;
      }

      .uuid-a6db9902-a930-4ffe-a92b-b88cba1297c3, .uuid-081983fb-0a96-4947-a019-349e59492897 {
        fill-rule: evenodd;
      }

      .uuid-081983fb-0a96-4947-a019-349e59492897 {
        fill: #fce3bf;
      }
    </style>
  </defs>
  <path class="uuid-98d5dbe8-bb6e-4b6c-bc5a-88f078f6f4a9" d="m111.36,116.54H11.52c-6.35-.03-11.49-5.17-11.52-11.52V39.93h122.88v65.07c-.03,6.35-5.17,11.49-11.52,11.52v.02Z"/>
  <path class="uuid-081983fb-0a96-4947-a019-349e59492897" d="m12.75,112.84h97.38c4.99-.02,9.04-4.07,9.06-9.06v-58.92H3.69v58.92c.01,5,4.06,9.05,9.06,9.06Z"/>
  <path class="uuid-a6db9902-a930-4ffe-a92b-b88cba1297c3" d="m11.52,6.6h99.84c6.35.03,11.49,5.17,11.52,11.52v26.75H0v-26.75C.02,11.76,5.17,6.62,11.52,6.6Zm24.79,9.75c5.14,0,9.31,4.17,9.31,9.31s-4.17,9.31-9.31,9.31-9.31-4.17-9.31-9.31h0c0-5.14,4.17-9.31,9.31-9.31h0Zm49.79,0c5.14,0,9.31,4.17,9.31,9.31s-4.17,9.31-9.31,9.31-9.31-4.17-9.31-9.31h0c0-5.14,4.17-9.31,9.31-9.31Z"/>
  <path class="uuid-081983fb-0a96-4947-a019-349e59492897" d="m86.1,14.56c6.13,0,11.1,4.97,11.1,11.1,0,6.13-4.97,11.1-11.1,11.1-6.13,0-11.1-4.97-11.1-11.1,0-2.94,1.17-5.77,3.25-7.85l.11-.1c2.07-2.02,4.85-3.15,7.74-3.15Zm0,1.79c5.14,0,9.31,4.17,9.31,9.31s-4.17,9.31-9.31,9.31-9.31-4.17-9.31-9.31h0c0-5.14,4.17-9.31,9.31-9.31Z"/>
  <path class="uuid-081983fb-0a96-4947-a019-349e59492897" d="m36.31,14.56c6.13,0,11.1,4.97,11.1,11.1,0,6.13-4.97,11.1-11.1,11.1-6.13,0-11.1-4.97-11.1-11.1,0-2.94,1.17-5.77,3.25-7.85l.11-.1c2.07-2.02,4.85-3.15,7.74-3.15Zm0,1.79c5.14,0,9.31,4.17,9.31,9.31s-4.17,9.31-9.31,9.31-9.31-4.17-9.31-9.31h0c0-5.14,4.17-9.31,9.31-9.31h0Z"/>
  <path class="uuid-e437e6c4-5460-4428-96a4-09f7138dff56" d="m80.54,4.56c0-2.56,2.46-4.56,5.56-4.56s5.56,2,5.56,4.56v21.21c0,2.51-2.49,4.55-5.56,4.55s-5.56-2-5.56-4.55V4.56Z"/>
  <path class="uuid-e437e6c4-5460-4428-96a4-09f7138dff56" d="m30.75,4.56c0-2.56,2.49-4.56,5.56-4.56s5.56,2,5.56,4.56v21.21c0,2.51-2.48,4.55-5.56,4.55s-5.56-2-5.56-4.55c0,0,0-21.21,0-21.21Z"/>
  <path class="uuid-e437e6c4-5460-4428-96a4-09f7138dff56" d="m53.87,92.78h-9.24l1.68-27.62h11.56l3.42,14.03h.31l3.45-14.05h11.53l1.68,27.64h-9.23l-.53-13.39h-.31l-3.32,13.39h-6.81l-3.41-13.39h-.26l-.52,13.39Z"/>
</svg>