<svg width="40" height="40" viewBox="0 0 40 40" fill="none" xmlns="http://www.w3.org/2000/svg">
<path d="M16 7.87692C16 5.73576 17.7358 4 19.8769 4C22.0181 4 23.7538 5.73576 23.7538 7.87692V8.12308C23.7538 10.2642 22.0181 12 19.8769 12C17.7358 12 16 10.2642 16 8.12308V7.87692Z" fill="#571B09"/>
<path d="M16 19.8769C16 17.7358 17.7358 16 19.8769 16C22.0181 16 23.7538 17.7358 23.7538 19.8769V20.1231C23.7538 22.2642 22.0181 24 19.8769 24C17.7358 24 16 22.2642 16 20.1231V19.8769Z" fill="#571B09"/>
<path d="M16 31.8769C16 29.7358 17.7358 28 19.8769 28C22.0181 28 23.7538 29.7358 23.7538 31.8769V32.1231C23.7538 34.2642 22.0181 36 19.8769 36C17.7358 36 16 34.2642 16 32.1231V31.8769Z" fill="#571B09"/>
</svg>
