<?xml version="1.0" encoding="utf-8"?>
<!-- Generator: Adobe Illustrator 27.6.1, SVG Export Plug-In . SVG Version: 6.00 Build 0)  -->
<svg version="1.1" id="uuid-27562bad-bca1-4bd6-8175-f42bd1c75afa"
	 xmlns="http://www.w3.org/2000/svg" xmlns:xlink="http://www.w3.org/1999/xlink" x="0px" y="0px" viewBox="0 0 94 108"
	 style="enable-background:new 0 0 94 108;" xml:space="preserve">
<style type="text/css">
	.st0{clip-path:url(#SVGID_00000070819612448719376290000016131928740509050265_);}
	.st1{fill:#B87647;}
	.st2{fill:#F2DAB5;}
	.st3{fill:none;stroke:#876233;stroke-width:2;}
</style>
<g>
	<defs>
		<rect id="SVGID_1_" x="-0.8" y="-1.9" width="95" height="110"/>
	</defs>
	<clipPath id="SVGID_00000150071123289957926170000003162048475539639698_">
		<use xlink:href="#SVGID_1_"  style="overflow:visible;"/>
	</clipPath>
	<g style="clip-path:url(#SVGID_00000150071123289957926170000003162048475539639698_);">
		<g>
			<path class="st1" d="M0-0.6h94.2V102h-5.9c-53.2-0.3-50.1-31.8-50.1-31.8v-3.6C37.9,36.2,4.3,37.8,4,37.7h-4.1"/>
			<path class="st2" d="M4,38.7c0.4,0.1,34-1.5,34.3,28.9v3.6c0,0-3,31.5,50.1,31.8h5.8v18.7H-0.1V38.7H4L4,38.7z"/>
		</g>
		<path class="st3" d="M-0.1,38.7H4c0.4,0.1,34-1.5,34.3,28.9v3.6c0,0-3,31.5,50.1,31.8h5.8"/>
	</g>
</g>
</svg>
