<svg width="44" height="44" viewBox="0 0 44 44" fill="none" xmlns="http://www.w3.org/2000/svg">
<path d="M25.7801 5.80099H24.2801V5.87581L24.2876 5.95025L25.7801 5.80099ZM25.7801 5.80097H27.2801V5.72616L27.2727 5.65171L25.7801 5.80097ZM25.9789 7.78873L24.4864 7.93798L24.4864 7.93798L25.9789 7.78873ZM26.7768 10.468L27.3508 9.0822L27.3508 9.0822L26.7768 10.468ZM29.2355 9.13763L28.2856 7.9767L28.2856 7.9767L29.2355 9.13763ZM30.7816 7.8726L31.7315 9.03354L31.7315 9.03354L30.7816 7.8726ZM32.1651 7.07473L32.2398 5.57659L32.2398 5.57659L32.1651 7.07473ZM33.4623 8.0063L32.4016 9.06696L33.4623 8.0063ZM35.9938 10.5378L37.0544 9.47712L35.9938 10.5378ZM36.9254 11.835L38.4235 11.7603L38.4235 11.7603L36.9254 11.835ZM36.1275 13.2185L34.9665 12.2686L34.9665 12.2686L36.1275 13.2185ZM34.8624 14.7646L33.7015 13.8148L33.7015 13.8148L34.8624 14.7646ZM36.2113 18.0212L36.0621 19.5137L36.2113 18.0212ZM38.199 18.2199L38.0497 19.7125L38.0497 19.7125L38.199 18.2199ZM39.7415 18.634L38.6293 19.6405L38.6293 19.6405L39.7415 18.634ZM39.7415 25.3661L38.6293 24.3596L38.6293 24.3596L39.7415 25.3661ZM38.199 25.7801L38.3483 27.2727L38.3483 27.2727L38.199 25.7801ZM36.2119 25.9789L36.3611 27.4714L36.3611 27.4714L36.2119 25.9789ZM34.863 29.2354L33.702 30.1853L33.702 30.1853L34.863 29.2354ZM36.1273 30.7807L37.2882 29.8308L37.2882 29.8308L36.1273 30.7807ZM36.9251 32.1641L38.4233 32.2389L38.4233 32.2389L36.9251 32.1641ZM32.1649 36.9244L32.2396 38.4225L32.2396 38.4225L32.1649 36.9244ZM30.7814 36.1265L31.7313 34.9656L31.7313 34.9656L30.7814 36.1265ZM29.2355 34.8617L28.2857 36.0227L28.2857 36.0227L29.2355 34.8617ZM26.7768 33.5313L26.2028 32.1455L26.2028 32.1455L26.7768 33.5313ZM25.979 36.2106L24.4864 36.0614L24.4864 36.0614L25.979 36.2106ZM25.7801 38.199L27.2727 38.3483L27.2727 38.3483L25.7801 38.199ZM25.3661 39.7415L24.3596 38.6293L24.3596 38.6293L25.3661 39.7415ZM18.634 39.7415L19.6405 38.6293L19.6405 38.6293L18.634 39.7415ZM18.2199 38.199L16.7274 38.3483L16.7274 38.3483L18.2199 38.199ZM18.0212 36.2113L19.5137 36.0621L19.5137 36.0621L18.0212 36.2113ZM17.2233 33.532L16.6493 34.9179L16.6493 34.9179L17.2233 33.532ZM14.7646 34.8624L13.8148 33.7015L13.8148 33.7015L14.7646 34.8624ZM13.2186 36.1273L12.2688 34.9664L12.2688 34.9664L13.2186 36.1273ZM11.8352 36.9252L11.7604 38.4233L11.7604 38.4233L11.8352 36.9252ZM10.5379 35.9936L9.47728 37.0543L9.47728 37.0543L10.5379 35.9936ZM8.00646 33.4621L9.06712 32.4015L9.06712 32.4015L8.00646 33.4621ZM7.07489 32.1649L5.57675 32.2397L5.57675 32.2397L7.07489 32.1649ZM7.87276 30.7815L6.71183 29.8316L6.71182 29.8316L7.87276 30.7815ZM9.13766 29.2355L10.2986 30.1853L10.2986 30.1853L9.13766 29.2355ZM10.468 26.7768L9.08222 27.3508L9.08222 27.3508L10.468 26.7768ZM7.78875 25.9789L7.93801 24.4864L7.93801 24.4864L7.78875 25.9789ZM5.80099 25.7801L5.95025 24.2876L5.87581 24.2801H5.80099V25.7801ZM5.80097 25.7801L5.65171 27.2727L5.72616 27.2801H5.80097V25.7801ZM4.25855 25.3661L5.37073 24.3596L5.37073 24.3596L4.25855 25.3661ZM4.25855 18.634L3.14637 17.6275L3.14637 17.6275L4.25855 18.634ZM5.80099 18.2199L5.65174 16.7274L5.65174 16.7274L5.80099 18.2199ZM7.78928 18.0211L7.64003 16.5286L7.64003 16.5286L7.78928 18.0211ZM9.13819 14.7646L10.2991 13.8147L10.2991 13.8147L9.13819 14.7646ZM7.87255 13.2177L6.71161 14.1675L6.71161 14.1675L7.87255 13.2177ZM7.07468 11.8342L5.57654 11.7595L5.57654 11.7595L7.07468 11.8342ZM10.5377 8.00551L11.5984 9.06617L11.5984 9.06617L10.5377 8.00551ZM11.8349 7.07394L11.9097 8.57207L11.9097 8.57207L11.8349 7.07394ZM13.2184 7.87181L12.2686 9.03274L12.2686 9.03275L13.2184 7.87181ZM14.7647 9.13694L15.7145 7.97601L15.7145 7.976L14.7647 9.13694ZM17.2234 10.4673L16.6494 9.08151L16.6494 9.08151L17.2234 10.4673ZM18.0212 7.78804L19.5138 7.93729L19.5138 7.93729L18.0212 7.78804ZM18.2199 5.80099L16.7274 5.65174L16.7274 5.65174L18.2199 5.80099ZM18.634 4.25855L17.6275 3.14637L17.6275 3.14637L18.634 4.25855ZM25.3661 4.25855L24.3596 5.37073L24.3596 5.37073L25.3661 4.25855ZM27.2801 5.80099V5.80097H24.2801V5.80099H27.2801ZM27.4715 7.63947L27.2727 5.65174L24.2876 5.95025L24.4864 7.93798L27.4715 7.63947ZM27.3508 9.0822C27.7498 9.24748 27.7623 9.59062 27.6865 9.28912C27.6101 8.98549 27.5582 8.50694 27.4715 7.63947L24.4864 7.93798C24.563 8.70404 24.6336 9.45065 24.7771 10.021C24.9211 10.5936 25.2509 11.4596 26.2027 11.8538L27.3508 9.0822ZM28.2856 7.9767C27.6109 8.52876 27.2358 8.83047 26.9671 8.99115C26.7003 9.15071 26.9518 8.91691 27.3508 9.0822L26.2027 11.8538C27.1546 12.2481 28.0001 11.8689 28.5068 11.5659C29.0116 11.2641 29.5895 10.7861 30.1853 10.2986L28.2856 7.9767ZM29.8318 6.71166L28.2856 7.9767L30.1853 10.2986L31.7315 9.03354L29.8318 6.71166ZM32.2398 5.57659C31.6239 5.54587 31.1369 5.76994 30.785 5.98937C30.4695 6.18615 30.1336 6.4647 29.8318 6.71167L31.7315 9.03354C31.9021 8.89396 32.0324 8.78747 32.1458 8.69917C32.2597 8.61057 32.329 8.56206 32.3724 8.53503C32.4146 8.5087 32.4014 8.52241 32.347 8.54022C32.2821 8.56146 32.1917 8.57792 32.0904 8.57287L32.2398 5.57659ZM34.523 6.94564C34.2472 6.66987 33.9407 6.35928 33.6463 6.13208C33.318 5.87872 32.8557 5.60731 32.2398 5.57659L32.0904 8.57287C31.9891 8.56781 31.9007 8.54244 31.8383 8.51485C31.7859 8.49171 31.7741 8.47676 31.8135 8.50716C31.854 8.53836 31.9182 8.59354 32.0226 8.69303C32.1267 8.79218 32.2458 8.91111 32.4016 9.06696L34.523 6.94564ZM37.0544 9.47712L34.523 6.94564L32.4016 9.06696L34.9331 11.5984L37.0544 9.47712ZM38.4235 11.7603C38.3928 11.1443 38.1214 10.6821 37.868 10.3538C37.6408 10.0594 37.3302 9.75289 37.0544 9.47712L34.9331 11.5984C35.089 11.7543 35.2079 11.8734 35.3071 11.9775C35.4065 12.0819 35.4617 12.1461 35.4929 12.1866C35.5233 12.2259 35.5084 12.2142 35.4852 12.1618C35.4576 12.0994 35.4323 12.011 35.4272 11.9097L38.4235 11.7603ZM37.2884 14.1683C37.5354 13.8665 37.8139 13.5306 38.0107 13.2151C38.2301 12.8631 38.4542 12.3762 38.4235 11.7603L35.4272 11.9097C35.4222 11.8084 35.4386 11.718 35.4599 11.6531C35.4777 11.5987 35.4914 11.5855 35.4651 11.6277C35.438 11.6711 35.3895 11.7404 35.3009 11.8543C35.2126 11.9677 35.1061 12.098 34.9665 12.2686L37.2884 14.1683ZM36.0234 15.7145L37.2884 14.1683L34.9665 12.2686L33.7015 13.8148L36.0234 15.7145ZM34.9179 16.6493C35.0832 17.0483 34.8494 17.2998 35.0089 17.033C35.1696 16.7643 35.4713 16.3892 36.0234 15.7145L33.7015 13.8148C33.214 14.4106 32.736 14.9885 32.4342 15.4933C32.1312 16 31.752 16.8455 32.1462 17.7974L34.9179 16.6493ZM36.3606 16.5286C35.4931 16.4419 35.0146 16.39 34.711 16.3136C34.4095 16.2378 34.7526 16.2503 34.9179 16.6493L32.1462 17.7974C32.5405 18.7492 33.4065 19.0789 33.979 19.223C34.5494 19.3665 35.296 19.4371 36.0621 19.5137L36.3606 16.5286ZM38.3483 16.7274L36.3606 16.5286L36.0621 19.5137L38.0497 19.7125L38.3483 16.7274ZM40.8536 17.6275C40.4398 17.1703 39.9371 16.9844 39.5331 16.8907C39.1708 16.8067 38.7363 16.7662 38.3483 16.7274L38.0497 19.7125C38.2691 19.7344 38.4365 19.7513 38.5792 19.7691C38.7223 19.7869 38.8057 19.8016 38.8554 19.8132C38.9039 19.8244 38.8849 19.8248 38.8338 19.7989C38.7729 19.768 38.6973 19.7157 38.6293 19.6405L40.8536 17.6275ZM41.5 20.21C41.5 19.82 41.5029 19.3837 41.4554 19.0148C41.4024 18.6035 41.2674 18.0848 40.8536 17.6275L38.6293 19.6405C38.5612 19.5653 38.5167 19.4849 38.492 19.4213C38.4714 19.3679 38.4736 19.349 38.48 19.3983C38.4865 19.449 38.4929 19.5334 38.4964 19.6776C38.4999 19.8213 38.5 19.9896 38.5 20.21H41.5ZM41.5 23.7901V20.21H38.5V23.7901H41.5ZM40.8536 26.3726C41.2674 25.9153 41.4024 25.3966 41.4554 24.9852C41.5029 24.6164 41.5 24.1801 41.5 23.7901H38.5C38.5 24.0105 38.4999 24.1788 38.4964 24.3225C38.4929 24.4667 38.4865 24.5511 38.48 24.6018C38.4736 24.6511 38.4714 24.6322 38.492 24.5788C38.5167 24.5152 38.5612 24.4348 38.6293 24.3596L40.8536 26.3726ZM38.3483 27.2727C38.7363 27.2339 39.1708 27.1934 39.5331 27.1094C39.9371 27.0157 40.4398 26.8298 40.8536 26.3726L38.6293 24.3596C38.6973 24.2843 38.7729 24.232 38.8338 24.2012C38.8849 24.1753 38.9039 24.1757 38.8554 24.1869C38.8057 24.1984 38.7223 24.2132 38.5792 24.231C38.4365 24.2488 38.2691 24.2657 38.0498 24.2876L38.3483 27.2727ZM36.3611 27.4714L38.3483 27.2727L38.0498 24.2876L36.0626 24.4863L36.3611 27.4714ZM34.9184 27.3507C34.7531 27.7498 34.41 27.7623 34.7115 27.6864C35.0151 27.61 35.4937 27.5582 36.3611 27.4714L36.0626 24.4863C35.2966 24.5629 34.55 24.6336 33.9796 24.7771C33.4071 24.9211 32.541 25.2508 32.1468 26.2027L34.9184 27.3507ZM36.0239 28.2856C35.4718 27.6108 35.1701 27.2358 35.0095 26.9671C34.8499 26.7002 35.0837 26.9517 34.9184 27.3507L32.1468 26.2027C31.7525 27.1545 32.1317 28.0001 32.4347 28.5067C32.7365 29.0115 33.2145 29.5894 33.702 30.1853L36.0239 28.2856ZM37.2882 29.8308L36.0239 28.2855L33.702 30.1853L34.9663 31.7305L37.2882 29.8308ZM38.4233 32.2389C38.454 31.6229 38.2299 31.136 38.0105 30.7841C37.8137 30.4685 37.5352 30.1327 37.2882 29.8308L34.9663 31.7305C35.1059 31.9011 35.2124 32.0314 35.3007 32.1449C35.3893 32.2587 35.4378 32.3281 35.4648 32.3714C35.4912 32.4136 35.4775 32.4004 35.4597 32.346C35.4384 32.2812 35.422 32.1907 35.427 32.0894L38.4233 32.2389ZM37.0542 34.522C37.33 34.2462 37.6406 33.9398 37.8678 33.6453C38.1212 33.317 38.3926 32.8548 38.4233 32.2389L35.427 32.0894C35.4321 31.9881 35.4574 31.8998 35.485 31.8373C35.5082 31.785 35.5231 31.7732 35.4927 31.8126C35.4615 31.853 35.4063 31.9172 35.3068 32.0217C35.2077 32.1258 35.0888 32.2448 34.9329 32.4007L37.0542 34.522ZM34.5228 37.0535L37.0542 34.522L34.9329 32.4007L32.4014 34.9322L34.5228 37.0535ZM32.2396 38.4225C32.8555 38.3918 33.3178 38.1204 33.6461 37.8671C33.9405 37.6399 34.247 37.3293 34.5228 37.0535L32.4014 34.9322C32.2456 35.088 32.1265 35.207 32.0224 35.3061C31.918 35.4056 31.8538 35.4608 31.8133 35.492C31.7739 35.5224 31.7857 35.5074 31.8381 35.4843C31.9005 35.4567 31.9888 35.4313 32.0902 35.4263L32.2396 38.4225ZM29.8315 37.2875C30.1334 37.5344 30.4692 37.813 30.7848 38.0098C31.1367 38.2292 31.6237 38.4533 32.2396 38.4225L32.0902 35.4263C32.1915 35.4212 32.2819 35.4377 32.3468 35.4589C32.4012 35.4767 32.4144 35.4904 32.3722 35.4641C32.3288 35.4371 32.2595 35.3886 32.1456 35.3C32.0322 35.2117 31.9019 35.1052 31.7313 34.9656L29.8315 37.2875ZM28.2857 36.0227L29.8315 37.2875L31.7313 34.9656L30.1854 33.7008L28.2857 36.0227ZM27.3509 34.9172C26.9518 35.0824 26.7003 34.8486 26.9672 35.0082C27.2359 35.1689 27.6109 35.4706 28.2857 36.0227L30.1854 33.7008C29.5895 33.2133 29.0116 32.7353 28.5068 32.4334C28.0002 32.1305 27.1547 31.7513 26.2028 32.1455L27.3509 34.9172ZM27.4715 36.3599C27.5583 35.4924 27.6101 35.0139 27.6865 34.7102C27.7624 34.4087 27.7499 34.7519 27.3509 34.9172L26.2028 32.1455C25.251 32.5398 24.9212 33.4058 24.7772 33.9783C24.6337 34.5487 24.563 35.2953 24.4864 36.0614L27.4715 36.3599ZM27.2727 38.3483L27.4715 36.3599L24.4864 36.0614L24.2876 38.0497L27.2727 38.3483ZM26.3726 40.8536C26.8298 40.4398 27.0157 39.9371 27.1094 39.5331C27.1934 39.1708 27.2339 38.7363 27.2727 38.3483L24.2876 38.0497C24.2657 38.2691 24.2488 38.4365 24.231 38.5792C24.2132 38.7223 24.1984 38.8057 24.1869 38.8554C24.1757 38.9039 24.1753 38.8849 24.2012 38.8338C24.232 38.7729 24.2843 38.6973 24.3596 38.6293L26.3726 40.8536ZM23.7901 41.5C24.1801 41.5 24.6164 41.5029 24.9852 41.4554C25.3966 41.4024 25.9153 41.2674 26.3726 40.8536L24.3596 38.6293C24.4348 38.5612 24.5152 38.5167 24.5788 38.492C24.6322 38.4714 24.6511 38.4736 24.6018 38.48C24.5511 38.4865 24.4667 38.4929 24.3225 38.4964C24.1788 38.4999 24.0105 38.5 23.7901 38.5V41.5ZM20.21 41.5H23.7901V38.5H20.21V41.5ZM17.6275 40.8536C18.0848 41.2674 18.6035 41.4024 19.0148 41.4554C19.3837 41.5029 19.82 41.5 20.21 41.5V38.5C19.9896 38.5 19.8213 38.4999 19.6776 38.4964C19.5334 38.4929 19.449 38.4865 19.3983 38.48C19.349 38.4736 19.3679 38.4714 19.4213 38.492C19.4849 38.5167 19.5653 38.5612 19.6405 38.6293L17.6275 40.8536ZM16.7274 38.3483C16.7662 38.7363 16.8067 39.1708 16.8907 39.5331C16.9844 39.9371 17.1703 40.4398 17.6275 40.8536L19.6405 38.6293C19.7157 38.6973 19.768 38.7729 19.7989 38.8338C19.8248 38.8849 19.8244 38.9039 19.8132 38.8554C19.8016 38.8057 19.7869 38.7223 19.7691 38.5792C19.7513 38.4365 19.7344 38.2691 19.7125 38.0498L16.7274 38.3483ZM16.5286 36.3606L16.7274 38.3483L19.7125 38.0498L19.5137 36.0621L16.5286 36.3606ZM16.6493 34.9179C16.2503 34.7526 16.2378 34.4094 16.3136 34.7109C16.39 35.0146 16.4419 35.4931 16.5286 36.3606L19.5137 36.0621C19.4371 35.296 19.3665 34.5494 19.223 33.979C19.0789 33.4065 18.7492 32.5405 17.7974 32.1462L16.6493 34.9179ZM15.7145 36.0234C16.3892 35.4713 16.7643 35.1696 17.033 35.0089C17.2998 34.8493 17.0483 35.0831 16.6493 34.9179L17.7974 32.1462C16.8455 31.7519 16 32.1312 15.4933 32.4341C14.9885 32.736 14.4106 33.214 13.8148 33.7015L15.7145 36.0234ZM14.1685 37.2883L15.7145 36.0234L13.8148 33.7015L12.2688 34.9664L14.1685 37.2883ZM11.7604 38.4233C12.3764 38.4541 12.8633 38.23 13.2152 38.0106C13.5308 37.8138 13.8666 37.5352 14.1685 37.2883L12.2688 34.9664C12.0982 35.106 11.9679 35.2125 11.8544 35.3008C11.7406 35.3894 11.6712 35.4379 11.6279 35.4649C11.5857 35.4912 11.5989 35.4775 11.6533 35.4597C11.7181 35.4385 11.8086 35.422 11.9099 35.4271L11.7604 38.4233ZM9.47728 37.0543C9.75305 37.3301 10.0595 37.6406 10.3539 37.8678C10.6823 38.1212 11.1445 38.3926 11.7604 38.4233L11.9099 35.4271C12.0112 35.4321 12.0995 35.4575 12.162 35.4851C12.2143 35.5082 12.2261 35.5232 12.1867 35.4928C12.1463 35.4616 12.0821 35.4064 11.9776 35.3069C11.8735 35.2077 11.7545 35.0888 11.5986 34.933L9.47728 37.0543ZM6.9458 34.5228L9.47728 37.0543L11.5986 34.933L9.06712 32.4015L6.9458 34.5228ZM5.57675 32.2397C5.60747 32.8556 5.87888 33.3178 6.13224 33.6461C6.35944 33.9406 6.67003 34.247 6.9458 34.5228L9.06712 32.4015C8.91127 32.2456 8.79234 32.1266 8.69319 32.0225C8.5937 31.918 8.53852 31.8538 8.50732 31.8134C8.47692 31.774 8.49187 31.7858 8.51501 31.8381C8.5426 31.9006 8.56797 31.9889 8.57303 32.0902L5.57675 32.2397ZM6.71182 29.8316C6.46486 30.1334 6.18631 30.4693 5.98953 30.7849C5.7701 31.1368 5.54603 31.6237 5.57675 32.2397L8.57303 32.0902C8.57808 32.1915 8.56162 32.2819 8.54038 32.3468C8.52257 32.4012 8.50886 32.4144 8.53519 32.3722C8.56222 32.3289 8.61073 32.2595 8.69933 32.1457C8.78763 32.0322 8.89412 31.9019 9.0337 31.7313L6.71182 29.8316ZM7.97672 28.2856L6.71183 29.8316L9.0337 31.7313L10.2986 30.1853L7.97672 28.2856ZM9.08222 27.3508C8.91694 26.9518 9.15074 26.7003 8.99118 26.9671C8.8305 27.2358 8.52878 27.6109 7.97672 28.2856L10.2986 30.1853C10.7861 29.5895 11.2641 29.0116 11.5659 28.5068C11.8689 28.0001 12.2481 27.1546 11.8539 26.2027L9.08222 27.3508ZM7.6395 27.4715C8.50697 27.5582 8.98552 27.6101 9.28914 27.6865C9.59065 27.7623 9.24751 27.7498 9.08222 27.3508L11.8539 26.2027C11.4596 25.2509 10.5936 24.9212 10.0211 24.7771C9.45067 24.6336 8.70407 24.563 7.93801 24.4864L7.6395 27.4715ZM5.65174 27.2727L7.6395 27.4715L7.93801 24.4864L5.95025 24.2876L5.65174 27.2727ZM5.80097 27.2801H5.80099V24.2801H5.80097V27.2801ZM3.14637 26.3726C3.56017 26.8298 4.06293 27.0157 4.46693 27.1094C4.82921 27.1934 5.26366 27.2339 5.65171 27.2727L5.95023 24.2876C5.73092 24.2657 5.56348 24.2488 5.42082 24.231C5.27767 24.2132 5.19433 24.1984 5.14457 24.1869C5.0961 24.1757 5.11514 24.1753 5.1662 24.2012C5.22709 24.232 5.30266 24.2843 5.37073 24.3596L3.14637 26.3726ZM2.5 23.7901C2.5 24.1801 2.49709 24.6164 2.54462 24.9852C2.59763 25.3966 2.73256 25.9153 3.14637 26.3726L5.37073 24.3596C5.43879 24.4348 5.48331 24.5152 5.50795 24.5788C5.52861 24.6322 5.52637 24.6511 5.52001 24.6018C5.51348 24.5511 5.50711 24.4667 5.50359 24.3225C5.50009 24.1788 5.5 24.0105 5.5 23.7901H2.5ZM2.5 20.21V23.7901H5.5V20.21H2.5ZM3.14637 17.6275C2.73256 18.0848 2.59763 18.6035 2.54462 19.0148C2.49709 19.3837 2.5 19.82 2.5 20.21H5.5C5.5 19.9896 5.50009 19.8213 5.50359 19.6776C5.50711 19.5334 5.51348 19.449 5.52001 19.3983C5.52637 19.349 5.52861 19.3679 5.50795 19.4213C5.48331 19.4849 5.43879 19.5653 5.37073 19.6405L3.14637 17.6275ZM5.65174 16.7274C5.26367 16.7662 4.82922 16.8067 4.46693 16.8907C4.06294 16.9844 3.56017 17.1703 3.14637 17.6275L5.37073 19.6405C5.30266 19.7157 5.22709 19.768 5.1662 19.7989C5.11514 19.8248 5.0961 19.8244 5.14457 19.8132C5.19433 19.8016 5.27768 19.7869 5.42083 19.7691C5.56349 19.7513 5.73093 19.7344 5.95025 19.7125L5.65174 16.7274ZM7.64003 16.5286L5.65174 16.7274L5.95025 19.7125L7.93854 19.5137L7.64003 16.5286ZM9.08275 16.6492C9.24804 16.2502 9.59117 16.2377 9.28967 16.3136C8.98605 16.39 8.5075 16.4418 7.64003 16.5286L7.93854 19.5137C8.7046 19.4371 9.4512 19.3664 10.0216 19.2229C10.5941 19.0789 11.4601 18.7491 11.8544 17.7973L9.08275 16.6492ZM7.97725 15.7144C8.52931 16.3892 8.83102 16.7642 8.99171 17.0329C9.15127 17.2997 8.91746 17.0483 9.08275 16.6492L11.8544 17.7973C12.2487 16.8454 11.8695 15.9999 11.5665 15.4932C11.2646 14.9885 10.7866 14.4106 10.2991 13.8147L7.97725 15.7144ZM6.71161 14.1675L7.97725 15.7144L10.2991 13.8147L9.03348 12.2678L6.71161 14.1675ZM5.57654 11.7595C5.54582 12.3754 5.76989 12.8624 5.98932 13.2143C6.1861 13.5298 6.46465 13.8657 6.71161 14.1675L9.03349 12.2678C8.89391 12.0972 8.78742 11.9669 8.69912 11.8535C8.61052 11.7396 8.56201 11.6703 8.53498 11.6269C8.50865 11.5847 8.52236 11.5979 8.54017 11.6523C8.56141 11.7172 8.57787 11.8076 8.57281 11.9089L5.57654 11.7595ZM6.94559 9.47633C6.66982 9.7521 6.35923 10.0586 6.13203 10.353C5.87867 10.6813 5.60726 11.1436 5.57654 11.7595L8.57281 11.9089C8.56776 12.0102 8.54239 12.0986 8.5148 12.161C8.49166 12.2134 8.47671 12.2252 8.5071 12.1858C8.53831 12.1453 8.59349 12.0811 8.69297 11.9767C8.79213 11.8726 8.91106 11.7535 9.06691 11.5976L6.94559 9.47633ZM9.47707 6.94485L6.94559 9.47633L9.06691 11.5976L11.5984 9.06617L9.47707 6.94485ZM11.7602 5.5758C11.1443 5.60652 10.6821 5.87793 10.3537 6.13129C10.0593 6.35849 9.75284 6.66908 9.47707 6.94485L11.5984 9.06617C11.7542 8.91032 11.8733 8.79139 11.9774 8.69223C12.0819 8.59274 12.1461 8.53757 12.1865 8.50636C12.2259 8.47597 12.2141 8.49092 12.1617 8.51406C12.0993 8.54165 12.011 8.56702 11.9097 8.57207L11.7602 5.5758ZM14.1683 6.71087C13.8664 6.46391 13.5306 6.18536 13.215 5.98858C12.8631 5.76915 12.3762 5.54508 11.7602 5.5758L11.9097 8.57207C11.8084 8.57713 11.7179 8.56067 11.6531 8.53943C11.5987 8.52162 11.5854 8.50791 11.6277 8.53424C11.671 8.56127 11.7404 8.60978 11.8542 8.69838C11.9677 8.78668 12.098 8.89317 12.2686 9.03274L14.1683 6.71087ZM15.7145 7.976L14.1683 6.71087L12.2686 9.03275L13.8148 10.2979L15.7145 7.976ZM16.6494 9.08151C17.0484 8.91622 17.2999 9.15002 17.033 8.99046C16.7643 8.82978 16.3893 8.52806 15.7145 7.97601L13.8148 10.2979C14.4107 10.7854 14.9886 11.2634 15.4934 11.5652C16 11.8682 16.8456 12.2474 17.7974 11.8531L16.6494 9.08151ZM16.5287 7.63878C16.4419 8.50625 16.3901 8.98481 16.3137 9.28843C16.2378 9.58993 16.2503 9.24679 16.6494 9.08151L17.7974 11.8531C18.7493 11.4589 19.079 10.5929 19.223 10.0203C19.3665 9.44996 19.4372 8.70335 19.5138 7.93729L16.5287 7.63878ZM16.7274 5.65174L16.5287 7.63878L19.5138 7.93729L19.7125 5.95025L16.7274 5.65174ZM17.6275 3.14637C17.1703 3.56017 16.9844 4.06294 16.8907 4.46693C16.8067 4.82922 16.7662 5.26367 16.7274 5.65174L19.7125 5.95025C19.7344 5.73093 19.7513 5.56349 19.7691 5.42083C19.7869 5.27768 19.8016 5.19433 19.8132 5.14457C19.8244 5.0961 19.8248 5.11514 19.7989 5.1662C19.768 5.22709 19.7157 5.30266 19.6405 5.37073L17.6275 3.14637ZM20.21 2.5C19.82 2.5 19.3837 2.49709 19.0148 2.54462C18.6035 2.59763 18.0848 2.73256 17.6275 3.14637L19.6405 5.37073C19.5653 5.43879 19.4849 5.48331 19.4213 5.50795C19.3679 5.52861 19.349 5.52637 19.3983 5.52001C19.449 5.51348 19.5334 5.50711 19.6776 5.50359C19.8213 5.50009 19.9896 5.5 20.21 5.5V2.5ZM23.7901 2.5H20.21V5.5H23.7901V2.5ZM26.3726 3.14637C25.9153 2.73256 25.3966 2.59763 24.9852 2.54462C24.6164 2.49709 24.1801 2.5 23.7901 2.5V5.5C24.0105 5.5 24.1788 5.50009 24.3225 5.50359C24.4667 5.50711 24.5511 5.51348 24.6018 5.52001C24.6511 5.52637 24.6322 5.52861 24.5788 5.50795C24.5152 5.48331 24.4348 5.43879 24.3596 5.37073L26.3726 3.14637ZM27.2727 5.65171C27.2339 5.26366 27.1934 4.82921 27.1094 4.46693C27.0157 4.06293 26.8298 3.56017 26.3726 3.14637L24.3596 5.37073C24.2843 5.30266 24.232 5.22709 24.2012 5.1662C24.1753 5.11514 24.1757 5.0961 24.1869 5.14457C24.1984 5.19433 24.2132 5.27767 24.231 5.42082C24.2488 5.56348 24.2657 5.73092 24.2876 5.95023L27.2727 5.65171ZM26.5 22C26.5 24.4853 24.4853 26.5 22 26.5V29.5C26.1421 29.5 29.5 26.1421 29.5 22H26.5ZM22 17.5C24.4853 17.5 26.5 19.5147 26.5 22H29.5C29.5 17.8579 26.1421 14.5 22 14.5V17.5ZM17.5 22C17.5 19.5147 19.5147 17.5 22 17.5V14.5C17.8579 14.5 14.5 17.8579 14.5 22H17.5ZM22 26.5C19.5147 26.5 17.5 24.4853 17.5 22H14.5C14.5 26.1421 17.8579 29.5 22 29.5V26.5Z" fill="#FCE3BF"/>
</svg>
