<svg xmlns="http://www.w3.org/2000/svg" viewBox="0 0 20 20">
	<path d="M8.4,10.6H3.1c-0.5,0-1,0.3-1.2,0.8c-0.2,0.5-0.1,1,0.3,1.4l1.2,1.2l-3,3c-0.5,0.5-0.5,1.3,0,1.8l0.9,0.9
	c0.5,0.5,1.3,0.5,1.8,0l3-3l1.2,1.2c0.2,0.2,0.6,0.4,0.9,0.4c0.2,0,0.3,0,0.5-0.1c0.5-0.2,0.8-0.6,0.8-1.2v-5.3
	C9.3,11,9,10.6,8.4,10.6z M11.6,9.4h5.3c0.5,0,1-0.3,1.2-0.8c0.2-0.5,0.1-1-0.3-1.4l-1.2-1.2l3-3c0.5-0.5,0.5-1.3,0-1.8l-0.9-0.9
	c-0.5-0.5-1.3-0.5-1.8,0l-3,3l-1.2-1.2c-0.4-0.4-0.9-0.5-1.4-0.3c-0.5,0.2-0.8,0.6-0.8,1.2v5.3C10.6,9,11.1,9.4,11.6,9.4z" fill="#571b09"/>
</svg>