<?xml version="1.0" encoding="utf-8"?>
<!-- Generator: Adobe Illustrator 27.5.0, SVG Export Plug-In . SVG Version: 6.00 Build 0)  -->
<svg version="1.1" id="uuid-3ad5c9a1-2dbb-488e-8337-1439c7f43ba8"
	 xmlns="http://www.w3.org/2000/svg" xmlns:xlink="http://www.w3.org/1999/xlink" x="0px" y="0px" viewBox="0 0 122.9 116.5"
	 style="enable-background:new 0 0 122.9 116.5;" xml:space="preserve">
<style type="text/css">
	.st0{fill:#BB925D;}
	.st1{fill-rule:evenodd;clip-rule:evenodd;fill:#FCE3BF;}
	.st2{fill-rule:evenodd;clip-rule:evenodd;fill:#F7B759;}
	.st3{fill:#571B09;}
</style>
<path class="st0" d="M111.4,116.5H11.5C5.2,116.5,0,111.4,0,105V39.9h122.9V105C122.8,111.3,117.7,116.5,111.4,116.5L111.4,116.5z"
	/>
<path class="st1" d="M12.8,112.8h97.4c5,0,9-4.1,9.1-9.1V44.9H3.7v58.9C3.7,108.8,7.8,112.8,12.8,112.8z"/>
<path class="st2" d="M11.5,6.6h99.8c6.3,0,11.5,5.2,11.5,11.5v26.8H0V18.1C0,11.8,5.2,6.6,11.5,6.6z M36.3,16.4
	c5.1,0,9.3,4.2,9.3,9.3S41.5,35,36.3,35S27,30.8,27,25.7l0,0C27,20.5,31.2,16.3,36.3,16.4C36.3,16.3,36.3,16.3,36.3,16.4z
	 M86.1,16.4c5.1,0,9.3,4.2,9.3,9.3S91.2,35,86.1,35s-9.3-4.2-9.3-9.3l0,0C76.8,20.5,81,16.3,86.1,16.4z"/>
<path class="st1" d="M86.1,14.6c6.1,0,11.1,5,11.1,11.1s-5,11.1-11.1,11.1S75,31.8,75,25.7c0-2.9,1.2-5.8,3.2-7.9l0.1-0.1
	C80.4,15.7,83.2,14.6,86.1,14.6z M86.1,16.4c5.1,0,9.3,4.2,9.3,9.3S91.2,35,86.1,35s-9.3-4.2-9.3-9.3l0,0
	C76.8,20.5,81,16.3,86.1,16.4z"/>
<path class="st1" d="M36.3,14.6c6.1,0,11.1,5,11.1,11.1s-5,11.1-11.1,11.1s-11.1-5-11.1-11.1c0-2.9,1.2-5.8,3.2-7.9l0.1-0.1
	C30.6,15.7,33.4,14.6,36.3,14.6z M36.3,16.4c5.1,0,9.3,4.2,9.3,9.3S41.5,35,36.3,35S27,30.8,27,25.7l0,0
	C27,20.5,31.2,16.3,36.3,16.4C36.3,16.3,36.3,16.3,36.3,16.4z"/>
<path class="st3" d="M80.5,4.6C80.5,2,83,0,86.1,0s5.6,2,5.6,4.6v21.2c0,2.5-2.5,4.6-5.6,4.6s-5.6-2-5.6-4.5V4.6z"/>
<path class="st3" d="M30.8,4.6C30.8,2,33.2,0,36.3,0s5.6,2,5.6,4.6v21.2c0,2.5-2.5,4.6-5.6,4.6s-5.6-2-5.6-4.5
	C30.8,25.8,30.8,4.6,30.8,4.6z"/>
<polygon class="st3" points="70.4,65.1 79.6,65.1 75.3,92.8 63.7,92.8 61.7,82.6 61.2,82.6 59.2,92.8 47.6,92.8 43.3,65.1 
	52.5,65.1 54.6,80.6 54.9,80.6 58.1,65.1 64.8,65.1 68,80.6 68.3,80.6 70.4,65.1 "/>
</svg>
